<svg id="Layer_1" data-name="Layer 1" xmlns="http://www.w3.org/2000/svg" viewBox="0 0 158 160"><defs><style>.cls-1{fill:#d6d6d6;}.cls-2{fill:#4c0909;}.cls-3{fill:#8e3838;}.cls-4{fill:#281010;}.cls-5{opacity:0;}.cls-6{fill:#b76262;}.cls-7{fill:none;}.cls-8{fill:#777;}</style></defs><title>TOP LOGO</title><polygon class="cls-1" points="9.84 80 40.16 80 7 113.16 7 82.84 9.84 80"/><polygon class="cls-1" points="76.16 80 7 149.16 7 118.84 45.84 80 76.16 80"/><polygon class="cls-1" points="79 82.84 79 113.16 40.16 152 9.84 152 79 82.84"/><polygon class="cls-1" points="79 118.84 79 149.16 76.16 152 45.84 152 79 118.84"/><polygon class="cls-2" points="81.84 80 112.16 80 79 113.16 79 82.84 81.84 80"/><path class="cls-2" d="M124.13,109.71c0-.46,0-.94,0-1.45a26.6,26.6,0,0,0-.26-4L148.16,80H117.84L79,118.84v30.32l27.11-27.11v5.68L81.84,152h30.32L151,113.16V82.84ZM117.36,114a5.49,5.49,0,0,1-2.47.46h-1.22L118.2,110c0,.67,0,1.3-.06,1.87a4.78,4.78,0,0,1-.49,1.91.87.87,0,0,1-.11.18Z"/><polygon class="cls-2" points="117.84 152 151 118.84 151 152 117.84 152"/><polygon class="cls-3" points="112.16 8 79 41.16 79 10.84 81.84 8 112.16 8"/><path class="cls-3" d="M124.79,37.05v-4a11.67,11.67,0,0,0-.11-1.59L148.16,8H117.84L79,46.84V77.16L106.17,50v3.45a12,12,0,0,0,.17,2.06L81.84,80h30.32L151,41.16V10.84Zm-6.26,6.26-6.11,6.11V43.74l6.11-6.11ZM117.84,80H151V46.84Z"/><polygon class="cls-4" points="40.16 8 7 41.16 7 8 40.16 8"/><polygon class="cls-4" points="79 10.84 79 41.16 40.16 80 9.84 80 39.87 49.97 39.87 44.29 7 77.16 7 46.84 45.84 8 76.16 8 52.21 31.95 52.21 32.65 51.51 32.65 51.21 32.95 51.21 33.65 50.51 33.65 46.13 38.03 46.13 43.71 79 10.84"/><polygon class="cls-4" points="79 46.84 79 77.16 76.16 80 45.84 80 79 46.84"/><g class="cls-5"><polygon class="cls-6" points="40.16 8 7 41.16 7 8 40.16 8"/></g><g class="cls-5"><polygon class="cls-6" points="7 82.84 7 113.16 40.16 80 79 41.16 112.16 8 81.84 8 79 10.84 46.13 43.71 46.13 38.03 50.51 33.65 51.21 33.65 51.21 32.95 51.51 32.65 52.21 32.65 52.21 31.95 76.16 8 45.84 8 7 46.84 7 77.16 39.87 44.29 39.87 49.97 9.84 80 7 82.84"/></g><g class="cls-5"><path class="cls-6" d="M117.84,152H151V118.84Zm0-72L79,118.84,45.84,152H76.16l30-29.95v5.68L81.84,152h30.32L151,113.16V82.84l-26.87,26.87c0-.46,0-.94,0-1.45a26.6,26.6,0,0,0-.26-4L148.16,80H151V46.84Zm.3,31.83a4.78,4.78,0,0,1-.49,1.91.87.87,0,0,1-.11.18l-.18.11a5.49,5.49,0,0,1-2.47.46h-1.22L118.2,110C118.2,110.63,118.18,111.26,118.14,111.83Zm.39-68.52-6.11,6.11V43.74l6.11-6.11ZM81.84,80l24.5-24.5a12,12,0,0,1-.17-2.06V50L79,77.16,76.16,80,7,149.16V118.84L45.84,80,79,46.84,117.84,8h30.32L124.68,31.48a11.67,11.67,0,0,1,.11,1.59v4L151,10.84V41.16L112.16,80,79,113.16,40.16,152H9.84L79,82.84Z"/></g><line class="cls-7" x1="81.84" y1="80" x2="79" y2="82.84"/><path class="cls-6" d="M112.42,43.74v5.68l-1,1-4.08,4.08-1,1a12,12,0,0,1-.17-2.06V50Z"/><path class="cls-6" d="M124.79,33.07v4l-1,1-4.26,4.26-1,1V37.63l1-1,4.15-4.15,1-1A11.67,11.67,0,0,1,124.79,33.07Z"/><line class="cls-7" x1="9.84" y1="80" x2="7" y2="82.84"/><polygon class="cls-6" points="46.13 38.03 46.13 43.71 39.87 49.97 39.87 44.29 46.13 38.03"/><polygon class="cls-6" points="50.51 33.65 51.21 32.95 51.21 33.65 50.51 33.65"/><polygon class="cls-6" points="51.51 32.65 52.21 31.95 52.21 32.65 51.51 32.65"/><path class="cls-6" d="M124.16,108.26c0,.51,0,1,0,1.45l-1,1-8.73,8.73-1,1-1,1-6.25,6.25v-5.68l7.56-7.56h1.22a5.49,5.49,0,0,0,2.47-.46l.18-.11a.87.87,0,0,0,.11-.18,4.78,4.78,0,0,0,.49-1.91c0-.57.06-1.2.06-1.87l1-1,3.7-3.7,1-1A26.6,26.6,0,0,1,124.16,108.26Z"/><polygon class="cls-6" points="151 77.16 151 80 148.16 80 151 77.16"/><polygon class="cls-8" points="51.21 28.71 51.21 33.65 45.13 33.65 45.13 65.38 39.87 65.38 39.87 33.65 33.8 33.65 33.8 28.71 40.07 28.71 40.07 21.81 45.07 21.81 45.07 28.71 51.21 28.71"/><polygon class="cls-1" points="52.21 27.71 52.21 32.65 46.13 32.65 46.13 64.38 40.87 64.38 40.87 32.65 34.8 32.65 34.8 27.71 41.07 27.71 41.07 20.81 46.07 20.81 46.07 27.71 52.21 27.71"/><path class="cls-8" d="M123.68,32.48a8.55,8.55,0,0,0-.66-2.32,8.77,8.77,0,0,0-2-2.84,9.26,9.26,0,0,0-9.2-1.64,8.53,8.53,0,0,0-2.61,1.48,1.56,1.56,0,0,0-.2.16,8.46,8.46,0,0,0-2.06,2.84,9.44,9.44,0,0,0-.77,3.91V53.44a12,12,0,0,0,.17,2.06,8.22,8.22,0,0,0,.6,1.91A8,8,0,0,0,109,60.14a8.27,8.27,0,0,0,2.81,1.7,9.1,9.1,0,0,0,6.34,0,8.89,8.89,0,0,0,2.86-1.7,6.51,6.51,0,0,0,.81-.85,8.38,8.38,0,0,0,1.2-1.88,9.37,9.37,0,0,0,.77-4V34.07A11.67,11.67,0,0,0,123.68,32.48Zm-12.26,1.59a3.49,3.49,0,0,1,1.06-2.8,4.59,4.59,0,0,1,.44-.33,3.91,3.91,0,0,1,4.56.33,3.49,3.49,0,0,1,1,2.8V53.44a4.08,4.08,0,0,1-.49,2.12,2.21,2.21,0,0,1-.56.69,3.92,3.92,0,0,1-5,0,3.51,3.51,0,0,1-1.06-2.81Z"/><path class="cls-1" d="M124.68,31.48a8.55,8.55,0,0,0-.66-2.32,8.77,8.77,0,0,0-2-2.84,9.26,9.26,0,0,0-9.2-1.64A8.62,8.62,0,0,0,110,26.32a7,7,0,0,0-.8.84,8.28,8.28,0,0,0-1.26,2,9.44,9.44,0,0,0-.77,3.91V52.44a12,12,0,0,0,.17,2.06,8.22,8.22,0,0,0,.6,1.91A8,8,0,0,0,110,59.14a8.27,8.27,0,0,0,2.81,1.7,9.1,9.1,0,0,0,6.34,0,8.56,8.56,0,0,0,2.67-1.55,1.39,1.39,0,0,0,.19-.15,8.29,8.29,0,0,0,2-2.73,9.37,9.37,0,0,0,.77-4V33.07A11.67,11.67,0,0,0,124.68,31.48Zm-5.15,21a3.51,3.51,0,0,1-1,2.81,2.52,2.52,0,0,1-.44.31,3.63,3.63,0,0,1-2.06.59,3.73,3.73,0,0,1-2.5-.9,3.51,3.51,0,0,1-1.06-2.81V33.07a4.09,4.09,0,0,1,.5-2.13,2.6,2.6,0,0,1,.56-.67,3.89,3.89,0,0,1,5,0,3.49,3.49,0,0,1,1,2.8Z"/><path class="cls-8" d="M122.9,105.26a11.47,11.47,0,0,0-.26-1.23,7.84,7.84,0,0,0-1.85-3.38,7.33,7.33,0,0,0-3-2,11.94,11.94,0,0,0-3.81-.56h-7.88v36.68h5.25V120.44H114a9.69,9.69,0,0,0,4.74-1,7.52,7.52,0,0,0,2.16-1.8,7.43,7.43,0,0,0,.73-1,8.85,8.85,0,0,0,1.21-3.19,24.16,24.16,0,0,0,.25-2.72c0-.46,0-.94,0-1.45A26.6,26.6,0,0,0,122.9,105.26ZM111.36,103h2.73a4.89,4.89,0,0,1,2.37.47,2.93,2.93,0,0,1,1.24,1.34,5.27,5.27,0,0,1,.46,2c0,.77,0,1.59,0,2.45,0,.22,0,.44,0,.65,0,.67,0,1.3-.06,1.87a4.78,4.78,0,0,1-.49,1.91.87.87,0,0,1-.11.18,3,3,0,0,1-1.18,1.11,5.49,5.49,0,0,1-2.47.46h-2.53Z"/><path class="cls-1" d="M123.9,104.26a11.47,11.47,0,0,0-.26-1.23,7.84,7.84,0,0,0-1.85-3.38,7.33,7.33,0,0,0-3-2,11.94,11.94,0,0,0-3.81-.56h-7.88v36.68h5.25V119.44H115a9.69,9.69,0,0,0,4.74-1,7.24,7.24,0,0,0,1.16-.8,7.83,7.83,0,0,0,1.73-2,8.85,8.85,0,0,0,1.21-3.19,24.16,24.16,0,0,0,.25-2.72c0-.46,0-.94,0-1.45A26.6,26.6,0,0,0,123.9,104.26ZM117.36,114a5.49,5.49,0,0,1-2.47.46h-2.53V102h2.73a4.89,4.89,0,0,1,2.37.47,2.93,2.93,0,0,1,1.24,1.34,5.27,5.27,0,0,1,.46,2c0,.77,0,1.59,0,2.45,0,.22,0,.44,0,.65,0,.67,0,1.3-.06,1.87a4.78,4.78,0,0,1-.49,1.91,2.86,2.86,0,0,1-1.11,1.18Z"/></svg>