<svg id="Layer_1" data-name="Layer 1" xmlns="http://www.w3.org/2000/svg" viewBox="0 0 158 160"><defs><style>.cls-1{fill:#4c0909;}.cls-2{fill:#8e3838;}.cls-3{fill:#281010;}.cls-4{fill:#d6d6d6;}.cls-5{fill:#bf8282;}</style></defs><title>Untitled-1</title><rect class="cls-1" x="79" y="80" width="72" height="72"/><rect class="cls-2" x="79" y="8" width="72" height="72"/><rect class="cls-3" x="7" y="8" width="72" height="72"/><polygon class="cls-4" points="51.2 33.65 45.13 33.65 45.13 65.38 39.87 65.38 39.87 33.65 33.8 33.65 33.8 28.71 40.06 28.71 40.06 21.81 45.06 21.81 45.06 28.71 51.2 28.71 51.2 33.65"/><path class="cls-4" d="M106.17,34.07a9.44,9.44,0,0,1,.77-3.91A8.46,8.46,0,0,1,109,27.32a8.62,8.62,0,0,1,2.81-1.64,9.39,9.39,0,0,1,9.2,1.64,8.77,8.77,0,0,1,2,2.84,9.44,9.44,0,0,1,.77,3.91V53.44a9.37,9.37,0,0,1-.77,4,8.29,8.29,0,0,1-2,2.73,8.89,8.89,0,0,1-2.86,1.7,9.1,9.1,0,0,1-6.34,0,8.27,8.27,0,0,1-2.81-1.7,8,8,0,0,1-2.06-2.73,9.37,9.37,0,0,1-.77-4Zm5.25,19.37a3.51,3.51,0,0,0,1.06,2.81,3.92,3.92,0,0,0,5,0,3.51,3.51,0,0,0,1-2.81V34.07a3.49,3.49,0,0,0-1-2.8,3.89,3.89,0,0,0-5,0,3.49,3.49,0,0,0-1.06,2.8Z"/><path class="cls-4" d="M106.11,134.76V98.08H114a11.94,11.94,0,0,1,3.81.56,7.33,7.33,0,0,1,3,2,7.84,7.84,0,0,1,1.85,3.38,20.77,20.77,0,0,1,.52,5.23,27.06,27.06,0,0,1-.28,4.17,8.85,8.85,0,0,1-1.21,3.19,7.79,7.79,0,0,1-2.89,2.81,9.69,9.69,0,0,1-4.74,1h-2.68v14.32ZM111.36,103v12.47h2.53a5.49,5.49,0,0,0,2.47-.46,3,3,0,0,0,1.29-1.29,4.78,4.78,0,0,0,.49-1.91c0-.75.07-1.6.07-2.52s0-1.68,0-2.45a5.27,5.27,0,0,0-.46-2,2.93,2.93,0,0,0-1.24-1.34,4.89,4.89,0,0,0-2.37-.47Z"/><polygon class="cls-5" points="25 80 7 98 7 80 25 80"/><polygon class="cls-5" points="61 80 7 133.98 7 116 43 80 61 80"/><polygon class="cls-5" points="79 80 79 98 25 152 7 152 79 80"/><polygon class="cls-5" points="79 116 79 133.98 61 152 43 152 79 116"/></svg>