<svg id="Layer_1" data-name="Layer 1" xmlns="http://www.w3.org/2000/svg" viewBox="0 0 158 160"><defs><style>.cls-1{fill:#d6d6d6;}.cls-2{fill:#4c0909;}.cls-3{fill:#8e3838;}.cls-4{fill:#281010;}.cls-5{opacity:0;}.cls-6{fill:#b76262;}.cls-7{fill:#777;}</style></defs><title>TOP LOGO</title><rect class="cls-1" x="7" y="80" width="72" height="72"/><rect class="cls-2" x="79" y="80" width="72" height="72"/><rect class="cls-3" x="79" y="8" width="72" height="72"/><rect class="cls-4" x="7" y="8" width="72" height="72"/><g class="cls-5"><rect class="cls-6" x="7" y="8" width="144" height="144"/></g><polygon class="cls-6" points="151 8 151 10.84 9.84 152 7 152 7 149.16 148.16 8 151 8"/><polygon class="cls-6" points="117.84 8 7 118.84 7 113.16 112.16 8 117.84 8"/><polygon class="cls-6" points="81.84 8 7 82.84 7 77.16 76.16 8 81.84 8"/><polygon class="cls-6" points="45.84 8 7 46.84 7 41.16 40.16 8 45.84 8"/><polygon class="cls-6" points="151 41.16 151 46.84 45.84 152 40.16 152 151 41.16"/><polygon class="cls-6" points="151 77.16 151 82.84 81.84 152 76.16 152 151 77.16"/><polygon class="cls-6" points="151 113.16 151 118.84 117.84 152 112.16 152 151 113.16"/><polygon class="cls-7" points="51.2 33.65 45.13 33.65 45.13 65.38 39.87 65.38 39.87 33.65 33.8 33.65 33.8 28.71 40.06 28.71 40.06 21.81 45.06 21.81 45.06 28.71 51.2 28.71 51.2 33.65"/><polygon class="cls-1" points="52.2 32.65 46.13 32.65 46.13 64.38 40.87 64.38 40.87 32.65 34.8 32.65 34.8 27.71 41.06 27.71 41.06 20.81 46.06 20.81 46.06 27.71 52.2 27.71 52.2 32.65"/><path class="cls-7" d="M106.17,34.07a9.44,9.44,0,0,1,.77-3.91A8.46,8.46,0,0,1,109,27.32a8.62,8.62,0,0,1,2.81-1.64,9.39,9.39,0,0,1,9.2,1.64,8.77,8.77,0,0,1,2,2.84,9.44,9.44,0,0,1,.77,3.91V53.44a9.37,9.37,0,0,1-.77,4,8.29,8.29,0,0,1-2,2.73,8.89,8.89,0,0,1-2.86,1.7,9.1,9.1,0,0,1-6.34,0,8.27,8.27,0,0,1-2.81-1.7,8,8,0,0,1-2.06-2.73,9.37,9.37,0,0,1-.77-4Zm5.25,19.37a3.51,3.51,0,0,0,1.06,2.81,3.92,3.92,0,0,0,5,0,3.51,3.51,0,0,0,1-2.81V34.07a3.49,3.49,0,0,0-1-2.8,3.89,3.89,0,0,0-5,0,3.49,3.49,0,0,0-1.06,2.8Z"/><path class="cls-1" d="M107.17,33.07a9.44,9.44,0,0,1,.77-3.91A8.46,8.46,0,0,1,110,26.32a8.62,8.62,0,0,1,2.81-1.64,9.39,9.39,0,0,1,9.2,1.64,8.77,8.77,0,0,1,2,2.84,9.44,9.44,0,0,1,.77,3.91V52.44a9.37,9.37,0,0,1-.77,4,8.29,8.29,0,0,1-2,2.73,8.89,8.89,0,0,1-2.86,1.7,9.1,9.1,0,0,1-6.34,0,8.27,8.27,0,0,1-2.81-1.7,8,8,0,0,1-2.06-2.73,9.37,9.37,0,0,1-.77-4Zm5.25,19.37a3.51,3.51,0,0,0,1.06,2.81,3.92,3.92,0,0,0,5,0,3.51,3.51,0,0,0,1-2.81V33.07a3.49,3.49,0,0,0-1-2.8,3.89,3.89,0,0,0-5,0,3.49,3.49,0,0,0-1.06,2.8Z"/><path class="cls-7" d="M106.11,134.76V98.08H114a11.94,11.94,0,0,1,3.81.56,7.33,7.33,0,0,1,3,2,7.84,7.84,0,0,1,1.85,3.38,20.77,20.77,0,0,1,.52,5.23,27.06,27.06,0,0,1-.28,4.17,8.85,8.85,0,0,1-1.21,3.19,7.79,7.79,0,0,1-2.89,2.81,9.69,9.69,0,0,1-4.74,1h-2.68v14.32ZM111.36,103v12.47h2.53a5.49,5.49,0,0,0,2.47-.46,3,3,0,0,0,1.29-1.29,4.78,4.78,0,0,0,.49-1.91c0-.75.07-1.6.07-2.52s0-1.68,0-2.45a5.27,5.27,0,0,0-.46-2,2.93,2.93,0,0,0-1.24-1.34,4.89,4.89,0,0,0-2.37-.47Z"/><path class="cls-1" d="M107.11,133.76V97.08H115a11.94,11.94,0,0,1,3.81.56,7.33,7.33,0,0,1,3,2,7.84,7.84,0,0,1,1.85,3.38,20.77,20.77,0,0,1,.52,5.23,27.06,27.06,0,0,1-.28,4.17,8.85,8.85,0,0,1-1.21,3.19,7.79,7.79,0,0,1-2.89,2.81,9.69,9.69,0,0,1-4.74,1h-2.68v14.32ZM112.36,102v12.47h2.53a5.49,5.49,0,0,0,2.47-.46,3,3,0,0,0,1.29-1.29,4.78,4.78,0,0,0,.49-1.91c0-.75.07-1.6.07-2.52s0-1.68,0-2.45a5.27,5.27,0,0,0-.46-2,2.93,2.93,0,0,0-1.24-1.34,4.89,4.89,0,0,0-2.37-.47Z"/></svg>